<svg xmlns="http://www.w3.org/2000/svg" version="1.1" xmlns:xlink="http://www.w3.org/1999/xlink" xmlns:svgjs="http://svgjs.dev/svgjs" width="128" height="128" viewBox="0 0 128 128"><g transform="matrix(0.8046875,0,0,0.8046875,12.552779994730543,10.759219531249997)"><svg viewBox="0 0 91 95" data-background-color="#020004" preserveAspectRatio="xMidYMid meet" height="133" width="128" xmlns="http://www.w3.org/2000/svg" xmlns:xlink="http://www.w3.org/1999/xlink"><g id="tight-bounds" transform="matrix(1,0,0,1,-0.04663086913086545,-0.24049999999999727)"><svg viewBox="0 0 91.09326173826173 95.481" height="95.481" width="91.09326173826173"><g><svg viewBox="0 0 91.09326173826173 95.481" height="95.481" width="91.09326173826173"><g><svg viewBox="0 0 91.09326173826173 95.481" height="95.481" width="91.09326173826173"><g id="textblocktransform"><svg viewBox="0 0 91.09326173826173 95.481" height="95.481" width="91.09326173826173" id="textblock"><g><svg viewBox="0 0 91.09326173826173 95.481" height="95.481" width="91.09326173826173"><g><svg viewBox="0 0 91.09326173826173 95.481" height="95.481" width="91.09326173826173"><g><svg xmlns="http://www.w3.org/2000/svg" xmlns:xlink="http://www.w3.org/1999/xlink" version="1.1" x="0" y="0" viewBox="0 0 95.5 100.1" style="enable-background:new 0 0 95.4 100;" xml:space="preserve" width="91.09326173826173" height="95.481" class="icon-icon-0" data-fill-palette-color="accent" id="icon-0"></svg></g></svg></g></svg></g></svg></g></svg></g></svg></g><defs></defs><mask id="ccbb7c7b-6a7a-40ca-a8bc-02c138f62e21"><g id="SvgjsG1437"><svg viewBox="0 0 91.09326173826173 95.481" height="95.481" width="91.09326173826173"><g><svg viewBox="0 0 91.09326173826173 95.481" height="95.481" width="91.09326173826173"><g><svg viewBox="0 0 91.09326173826173 95.481" height="95.481" width="91.09326173826173"><g id="SvgjsG1436"><svg viewBox="0 0 91.09326173826173 95.481" height="95.481" width="91.09326173826173" id="SvgjsSvg1435"><g><svg viewBox="0 0 91.09326173826173 95.481" height="95.481" width="91.09326173826173"><g><svg viewBox="0 0 91.09326173826173 95.481" height="95.481" width="91.09326173826173"><g><svg xmlns="http://www.w3.org/2000/svg" xmlns:xlink="http://www.w3.org/1999/xlink" version="1.1" x="0" y="0" viewBox="0 0 95.5 100.1" style="enable-background:new 0 0 95.4 100;" xml:space="preserve" width="91.09326173826173" height="95.481" class="icon-icon-0" data-fill-palette-color="accent" id="SvgjsSvg1434"><path d="M22.7 81.7H11.4c-3.8 0-6.8-3.1-6.8-6.8V43c0-1.3-1-2.3-2.3-2.3S0 41.8 0 43v31.8C0 80.3 3.9 84.9 9.1 86v11.6c0 1.3 1 2.3 2.3 2.3s2.3-1 2.3-2.3V86.2h9.1c1.3 0 2.3-1 2.3-2.3S24 81.7 22.7 81.7zM39.8 23.7c4.4 0 8 3.6 8 8s-3.6 8-8 8-8-3.6-8-8S35.4 23.7 39.8 23.7zM93.1 61.2H34.2c-1.3 0-2.3 1-2.3 2.3 0 1.3 1 2.3 2.3 2.3h27.2l-0.1 32c0 1.3 1 2.3 2.3 2.3l0 0c1.3 0 2.3-1 2.3-2.3l0.1-32h27.2c1.3 0 2.3-1 2.3-2.3C95.4 62.2 94.4 61.2 93.1 61.2zM56.8 49.8h-0.7l-5.3-5.3c-0.4-0.4-1.2-0.4-1.6 0-0.4 0.4-0.4 1.2 0 1.6l3.7 3.7h-8.1L32.4 39.3c-1-0.9-1.4-1.3-2.3-1.8-3.4-1.6-7.5-0.1-9.1 3.3L7.7 69.7c-1.6 3.4-0.1 7.5 3.3 9.1 0.9 0.4 1.8 0.6 2.7 0.6l0 0H30l-9.3 13.5c-1.4 2.1-0.9 4.9 1.2 6.3s4.9 0.9 6.3-1.2l14.2-20.6 0 0c0.3-0.5 0.6-1 0.7-1.6 0.1-0.3 0.1-0.6 0.1-0.9l0 0c0-0.1 0-0.2 0-0.3 0-0.2 0-0.4-0.1-0.6 0-0.2-0.1-0.3-0.1-0.4s-0.1-0.3-0.1-0.4c-0.1-0.1-0.1-0.3-0.2-0.4-0.1-0.1-0.1-0.2-0.2-0.4-0.1-0.1-0.2-0.3-0.3-0.4s-0.2-0.2-0.3-0.3c-0.2-0.2-0.3-0.3-0.5-0.4-0.1 0-0.1-0.1-0.2-0.1l0 0c-0.5-0.3-1-0.6-1.6-0.7-0.3-0.1-0.6-0.1-0.9-0.1l0 0H22.4l9.2-19.8 8.6 7.3c0.9 0.7 1.9 1.1 2.9 1.1h13.6c2.5 0 4.5-2 4.5-4.5C61.4 51.9 59.3 49.8 56.8 49.8zM88.6 59.1H72.7c-1.3 0-2.3-1-2.3-2.3s1-2.3 2.3-2.3h15.9c1.3 0 2.3 1 2.3 2.3S89.9 59.1 88.6 59.1zM90.9 52.3H77.3c-1.3 0-2.3-1-2.3-2.3s1-2.3 2.3-2.3h13.6c1.3 0 2.3 1 2.3 2.3S92.2 52.3 90.9 52.3zM72.7 22.7c-6.3 0-11.4-5.1-11.4-11.4S66.5 0 72.7 0s11.4 5.1 11.4 11.4S79 22.7 72.7 22.7zM72.7 4.5c-3.8 0-6.8 3.1-6.8 6.8s3.1 6.8 6.8 6.8 6.8-3.1 6.8-6.8S76.5 4.5 72.7 4.5zM72.7 12.5h-4.5c-0.6 0-1.1-0.5-1.1-1.1s0.5-1.1 1.1-1.1h3.4V6.8c0-0.6 0.5-1.1 1.1-1.1s1.1 0.5 1.1 1.1v4.5C73.9 12 73.4 12.5 72.7 12.5z" fill="white"></path></svg></g></svg></g></svg></g></svg></g></svg></g></svg></g><defs><mask></mask></defs></svg><rect width="91.09326173826173" height="95.481" fill="black" stroke="none" visibility="hidden"></rect></g></mask><linearGradient x1="0.054" x2="0.941" y1="0.5" y2="0.5" id="23c0dcba-0bd3-47ea-9d2f-8f4090a9f76c"><stop stop-color="#eaa79c" offset="0"></stop><stop stop-color="#f2e8cb" offset="0.498"></stop><stop stop-color="#eaa79c" offset="1"></stop></linearGradient><rect width="91.09326173826173" height="95.481" fill="url(#23c0dcba-0bd3-47ea-9d2f-8f4090a9f76c)" mask="url(#ccbb7c7b-6a7a-40ca-a8bc-02c138f62e21)" data-fill-palette-color="accent"></rect></svg><rect width="91.09326173826173" height="95.481" fill="none" stroke="none" visibility="hidden"></rect></g></svg></g></svg>